<svg xmlns="http://www.w3.org/2000/svg" className="w-12 h-12" width="512" height="512" fill="none" viewBox="0 0 512 512"
    id="layers">
    <g clipPath="url(#clip0_84_15696)">
        <rect width="512" height="512" fill="#fff" rx="64"></rect>
        <g clipPath="url(#clip1_84_15696)">
            <path fill="#2c9cc4" fillOpacity=".4"
                d="M85.0011 280.852L85.8544 152.874C86.0038 129.706 102.206 109.844 124.574 105.418L248.169 80.9163C277.865 75.0283 305.428 98.2709 305.236 129.023L304.382 257.023C304.222 280.18 288.02 300.031 265.652 304.468L142.057 328.97C112.361 334.858 84.7984 311.615 85.0011 280.852Z">
            </path>
            <path fill="#2c9cc4" fillOpacity=".6"
                d="M145.554 331.914L146.407 203.914C146.546 180.768 162.759 160.917 185.127 156.48L308.722 131.989C338.418 126.101 365.98 149.333 365.778 180.096L364.924 308.096C364.775 331.253 348.572 351.104 326.204 355.541L202.61 380.042C172.914 385.92 145.351 362.688 145.554 331.936V331.914Z">
            </path>
            <path fill="#43619d" fillOpacity=".8"
                d="M206.109 382.976L206.963 254.976C207.112 231.808 223.315 211.968 245.683 207.531L369.277 183.03C398.973 177.142 426.536 200.384 426.333 231.136L425.48 359.136C425.331 382.304 409.128 402.155 386.76 406.582L263.165 431.083C233.469 436.971 205.907 413.728 206.099 382.976H206.109Z">
            </path>
        </g>
    </g>
    <defs>
        <clipPath id="clip0_84_15696">
            <rect width="512" height="512" fill="#fff"></rect>
        </clipPath>
        <clipPath id="clip1_84_15696">
            <rect width="341.333" height="352" fill="#fff" transform="translate(85 80)"></rect>
        </clipPath>
    </defs>
</svg>